# xmcd
#
# Track frame offsets: 
#        150
#        23520
#        41739
#        58196
#        71373
#        87837
#        106383
#        128360
#        153782
#        177622
#        202690
#        218969
#        227946
#        245371
#        260573
#        274907
#
# Disc length: 3989 seconds
#
# Revision: 8
# Processed by: cddbd v1.5.2PL0 Copyright (c) Steve Scherf et al.
# Submitted via: ExactAudioCopyFreeDBPlugin 1.0
#
DISCID=d90f9310
DTITLE=Various Artist - Master Female Audiophile
DYEAR=2005
DGENRE=Audiophile
TTITLE0=Kari Bremnes - A Lover In Berlin
TTITLE1=Chie Ayado - Tennessee Waltz
TTITLE2=Inger Marie Gundersen - Let It Be Me
TTITLE3=Ab Und Zu - The Void
TTITLE4=Simone - How Do You Keep The Music Playing
TTITLE5=Kate Purcell - Reasons To Leave
TTITLE6=Carmen Cuesta Loeb - Estrana
TTITLE7=Niki King - Wild Is The Wind
TTITLE8=Lisa Wahlandt - Somewhere Over The Rainbow
TTITLE9=Kari Bremnes - Gate Ved Gate
TTITLE10=Katinka Wilson - Did You Fly
TTITLE11=Solveig Slettahjel - Moon River
TTITLE12=Chie Ayado - I Got A Name
TTITLE13=Strengenmusikken - Love Hurt
TTITLE14=Radka Toneff - The Moon Is A Harsh Mistress
TTITLE15=Lynni Treekrem - Haugtussa
EXTD=
EXTT0=
EXTT1=
EXTT2=
EXTT3=
EXTT4=
EXTT5=
EXTT6=
EXTT7=
EXTT8=
EXTT9=
EXTT10=
EXTT11=
EXTT12=
EXTT13=
EXTT14=
EXTT15=
PLAYORDER=
